<?xml version="1.0" encoding="UTF-8"?>
<svg width="40" height="40" viewBox="0 0 40 40" fill="none" xmlns="http://www.w3.org/2000/svg">
  <rect width="40" height="40" rx="8" fill="#E5E7EB"/>
  <path d="M20 12C14.477 12 10 16.477 10 22C10 27.523 14.477 32 20 32C25.523 32 30 27.523 30 22C30 16.477 25.523 12 20 12ZM20 30C15.582 30 12 26.418 12 22C12 17.582 15.582 14 20 14C24.418 14 28 17.582 28 22C28 26.418 24.418 30 20 30Z" fill="#9CA3AF"/>
  <path d="M20 16C17.791 16 16 17.791 16 20C16 22.209 17.791 24 20 24C22.209 24 24 22.209 24 20C24 17.791 22.209 16 20 16ZM20 22C18.895 22 18 21.105 18 20C18 18.895 18.895 18 20 18C21.105 18 22 18.895 22 20C22 21.105 21.105 22 20 22Z" fill="#9CA3AF"/>
</svg> 